<svg width="22" height="24" viewBox="0 0 22 24" fill="none" xmlns="http://www.w3.org/2000/svg">
<path d="M18.7049 3.93086C16.6473 1.79805 13.9071 0.625 10.9951 0.625C4.98437 0.625 0.0933036 5.68281 0.0933036 11.8984C0.0933036 13.884 0.594196 15.8238 1.54688 17.5352L0 23.375L5.77991 21.8059C7.37098 22.7047 9.16339 23.177 10.9902 23.177H10.9951C17.0009 23.177 22 18.1191 22 11.9035C22 8.89219 20.7625 6.06367 18.7049 3.93086ZM10.9951 21.2777C9.36473 21.2777 7.76875 20.8258 6.37902 19.9727L6.05 19.7695L2.62232 20.6988L3.53571 17.2406L3.31964 16.8852C2.41116 15.3922 1.93482 13.6707 1.93482 11.8984C1.93482 6.73398 6.00089 2.5293 11 2.5293C13.421 2.5293 15.6946 3.5043 17.4036 5.27656C19.1125 7.04883 20.1634 9.4 20.1585 11.9035C20.1585 17.073 15.9893 21.2777 10.9951 21.2777ZM15.9647 14.2598C15.6946 14.1176 14.354 13.4371 14.1036 13.3457C13.8531 13.2492 13.6714 13.2035 13.4897 13.4879C13.308 13.7723 12.7875 14.402 12.6254 14.5949C12.4683 14.7828 12.3062 14.8082 12.0362 14.666C10.4353 13.8383 9.38438 13.1883 8.32857 11.3145C8.04866 10.8168 8.60848 10.8523 9.12902 9.77578C9.21741 9.58789 9.17321 9.42539 9.10446 9.2832C9.03571 9.14102 8.49063 7.75469 8.26473 7.19102C8.04375 6.64258 7.81786 6.71875 7.65089 6.70859C7.49375 6.69844 7.31205 6.69844 7.13036 6.69844C6.94866 6.69844 6.65402 6.76953 6.40357 7.04883C6.15312 7.3332 5.45089 8.01367 5.45089 9.4C5.45089 10.7863 6.42813 12.127 6.56071 12.3148C6.69821 12.5027 8.4808 15.3465 11.2161 16.5703C12.9446 17.3422 13.6223 17.4082 14.4866 17.2762C15.0121 17.1949 16.0973 16.5957 16.3232 15.9355C16.5491 15.2754 16.5491 14.7117 16.4804 14.5949C16.4165 14.468 16.2348 14.3969 15.9647 14.2598Z" fill="white"/>
</svg>
